<svg width="207" height="207" viewBox="0 0 464 464" fill="none" xmlns="http://www.w3.org/2000/svg">
<path d="M429.339 279.14L395.139 256.032V186.709L429.339 164.064C431.187 162.677 432.574 160.829 432.574 158.518C432.574 156.207 431.187 153.896 429.339 152.972L253.259 34.6614C250.948 33.275 247.713 33.275 245.402 34.6614L28.1912 179.777C27.2669 180.239 26.8048 180.701 26.3426 181.626C26.3426 181.626 26.3426 181.626 26.3426 182.088C25.4183 183.474 25.4183 184.398 25.4183 185.785V312.877C25.4183 315.187 26.8048 317.498 28.6534 318.422L204.733 435.809C206.12 436.733 207.044 437.195 208.43 437.195C209.817 437.195 211.203 436.733 212.128 435.809L429.801 290.693C431.649 289.307 433.036 287.458 433.036 285.147C432.574 282.375 431.187 280.064 429.339 279.14ZM249.562 48.9881L413.163 158.056L386.359 175.618C384.972 176.08 383.586 177.004 382.661 177.928L207.968 294.391L76.7171 207.044C76.255 206.582 75.7928 206.582 75.7928 206.12L44.3665 185.323L249.562 48.9881ZM79.0279 225.53L203.809 308.717C206.12 310.104 209.355 310.104 211.665 308.717L381.275 195.49V252.335L208.892 366.024L79.0279 282.837V225.53ZM207.968 421.482L38.8207 308.717V198.725L65.6255 216.287V286.534C65.6255 288.845 67.012 291.155 68.8606 292.542L205.657 380.351C206.582 381.275 207.968 381.275 209.355 381.275C210.741 381.275 212.128 380.813 213.052 380.351L385.896 266.661L413.163 285.147L207.968 421.482Z"/>
<path d="M219.522 112.303L301.785 168.685C303.171 169.61 304.558 170.072 305.482 170.072C307.793 170.072 309.642 169.147 311.028 166.837C313.339 163.602 312.414 159.442 309.179 157.131L227.379 100.749C224.144 98.4382 219.984 99.3625 217.673 102.598C215.363 105.833 216.287 109.992 219.522 112.303Z"/>
</svg>
