<svg width="50" height="50" viewBox="0 0 50 50" fill="none" xmlns="http://www.w3.org/2000/svg">
<path d="M46.7391 15.2173H44.5652C44.1826 15.2173 43.8196 15.2956 43.4783 15.4173V11.9564C43.4783 10.1586 42.0152 8.69556 40.2174 8.69556H38.0435C36.2457 8.69556 34.7826 10.1586 34.7826 11.9564V19.5651H15.2174V11.9564C15.2174 10.1586 13.7543 8.69556 11.9565 8.69556H9.78261C7.98478 8.69556 6.52174 10.1586 6.52174 11.9564V15.4173C6.18043 15.2956 5.81739 15.2173 5.43478 15.2173H3.26087C1.46304 15.2173 0 16.6803 0 18.4782V31.5216C0 33.3195 1.46304 34.7825 3.26087 34.7825H5.43478C5.81739 34.7825 6.18043 34.7043 6.52174 34.5825V38.0434C6.52174 39.8412 7.98478 41.3043 9.78261 41.3043H11.9565C13.7543 41.3043 15.2174 39.8412 15.2174 38.0434V30.4347H34.7826V38.0434C34.7826 39.8412 36.2457 41.3043 38.0435 41.3043H40.2174C42.0152 41.3043 43.4783 39.8412 43.4783 38.0434V34.5825C43.8196 34.7043 44.1826 34.7825 44.5652 34.7825H46.7391C48.537 34.7825 50 33.3195 50 31.5216V18.4782C50 16.6803 48.537 15.2173 46.7391 15.2173ZM6.52174 31.5216C6.52174 32.1206 6.0337 32.6086 5.43478 32.6086H3.26087C2.66196 32.6086 2.17391 32.1206 2.17391 31.5216V18.4782C2.17391 17.8793 2.66196 17.3912 3.26087 17.3912H5.43478C6.0337 17.3912 6.52174 17.8793 6.52174 18.4782V31.5216ZM13.0435 38.0434C13.0435 38.6423 12.5554 39.1303 11.9565 39.1303H9.78261C9.1837 39.1303 8.69565 38.6423 8.69565 38.0434V31.5216V18.4782V11.9564C8.69565 11.3575 9.1837 10.8695 9.78261 10.8695H11.9565C12.5554 10.8695 13.0435 11.3575 13.0435 11.9564V38.0434ZM34.7826 28.2608H15.2174V21.739H34.7826V28.2608ZM41.3043 18.4782V31.5216V38.0434C41.3043 38.6423 40.8163 39.1303 40.2174 39.1303H38.0435C37.4446 39.1303 36.9565 38.6423 36.9565 38.0434V11.9564C36.9565 11.3575 37.4446 10.8695 38.0435 10.8695H40.2174C40.8163 10.8695 41.3043 11.3575 41.3043 11.9564V18.4782ZM47.8261 31.5216C47.8261 32.1206 47.338 32.6086 46.7391 32.6086H44.5652C43.9663 32.6086 43.4783 32.1206 43.4783 31.5216V18.4782C43.4783 17.8793 43.9663 17.3912 44.5652 17.3912H46.7391C47.338 17.3912 47.8261 17.8793 47.8261 18.4782V31.5216Z"/>
</svg>
