<svg width="50" height="50" viewBox="0 0 50 50" fill="none" xmlns="http://www.w3.org/2000/svg">
<g clip-path="url(#clip0)">
<path d="M38.5534 38.1432C37.167 34.8 35.8965 31.4371 34.8515 27.9705C34.8194 27.7632 34.7799 27.5558 34.7248 27.3485C33.7185 23.6071 32.7097 19.8648 31.7034 16.1234C34.366 14.9386 36.7753 13.0469 38.7616 10.9799C39.4947 10.2164 39.7004 9.01503 39.1343 8.08852C37.7166 5.77061 36.3005 3.45188 34.8836 1.13398C33.2832 -1.48673 29.1542 0.909343 30.7629 3.54322C31.8539 5.32958 32.9467 7.11594 34.0369 8.90312C32.2925 10.4657 30.2725 11.7929 28.0245 12.373C27.9035 12.4043 27.8007 12.4512 27.6929 12.4939C27.1177 12.4627 26.5434 12.5367 26.0267 12.7317C25.7 12.8543 25.4071 13.0107 25.1413 13.1892C25.1199 13.1884 25.1018 13.1827 25.0804 13.1818C21.0395 13.0979 17.4355 11.8069 14.057 9.6305C11.4618 7.95852 9.07065 12.0908 11.6477 13.7512C15.2707 16.0848 19.2449 17.5074 23.4948 17.8645C23.5154 17.9616 23.536 18.0596 23.5623 18.1558C24.6534 22.205 25.7444 26.2566 26.8339 30.3074C26.8339 30.309 26.8347 30.309 26.8347 30.3098C23.9046 32.6154 21.1201 35.1374 17.949 37.0998C15.3381 38.7158 17.7326 42.8432 20.3574 41.2205C23.9844 38.9767 27.0931 36.0104 30.4979 33.4662C30.6839 33.3271 30.8378 33.1749 30.9694 33.0128C31.1397 33.0079 31.3101 32.9955 31.4754 32.9709C32.1551 34.9045 32.8899 36.8151 33.6691 38.715C31.5174 41.1103 29.5632 43.6693 27.9167 46.443C26.3426 49.0975 30.4699 51.4968 32.0374 48.8523C33.7629 45.9436 35.8282 43.3418 38.1486 40.8856C38.8513 40.1418 38.9377 39.2737 38.6752 38.5249C38.6456 38.3999 38.6094 38.2732 38.5534 38.1432Z"/>
<path d="M25.0703 11.0089C27.4648 11.0089 29.4058 9.0678 29.4058 6.67337C29.4058 4.27895 27.4648 2.33789 25.0703 2.33789C22.6759 2.33789 20.7349 4.27895 20.7349 6.67337C20.7349 9.0678 22.6759 11.0089 25.0703 11.0089Z"/>
</g>
<defs>
<clipPath id="clip0">
<rect width="50" height="50"/>
</clipPath>
</defs>
</svg>
