<svg width="207" height="207" viewBox="0 0 207 207" fill="none" xmlns="http://www.w3.org/2000/svg">
<path d="M0 0V172.5C0 191.468 15.5317 207 34.5 207H172.5C191.468 207 207 191.468 207 172.5V34.5H155.25V0H0ZM17.25 17.25H138V172.5C138 178.901 140.291 184.595 143.391 189.75H34.5C24.8643 189.75 17.25 182.136 17.25 172.5V17.25ZM34.5 34.5V60.375H120.75V34.5H34.5ZM155.25 51.75H189.75V172.5C189.75 182.136 182.136 189.75 172.5 189.75C162.864 189.75 155.25 182.136 155.25 172.5V163.875H172.5V146.625H155.25V138H172.5V120.75H155.25V112.125H172.5V94.875H155.25V86.25H172.5V69H155.25V51.75ZM34.5 77.625V94.875H69V77.625H34.5ZM86.25 77.625V94.875H120.75V77.625H86.25ZM34.5 103.5V120.75H69V103.5H34.5ZM86.25 103.5V120.75H120.75V103.5H86.25ZM34.5 129.375V146.625H69V129.375H34.5ZM86.25 129.375V146.625H120.75V129.375H86.25ZM34.5 155.25V172.5H69V155.25H34.5ZM86.25 155.25V172.5H120.75V155.25H86.25Z" fill="#D3B1B1" fill-opacity="0.5"/>
</svg>
