<svg width="207" height="207" viewBox="0 0 207 207" fill="none" xmlns="http://www.w3.org/2000/svg">
<path d="M103.5 8.28003C50.9576 8.28003 8.28003 50.9576 8.28003 103.5C8.28003 156.042 50.9576 198.72 103.5 198.72C156.042 198.72 198.72 156.042 198.72 103.5C198.72 50.9576 156.042 8.28003 103.5 8.28003ZM103.5 16.56C151.563 16.56 190.44 55.4372 190.44 103.5C190.44 151.563 151.563 190.44 103.5 190.44C55.4372 190.44 16.56 151.563 16.56 103.5C16.56 55.4372 55.4372 16.56 103.5 16.56ZM103.5 33.12C64.6714 33.12 33.12 64.6714 33.12 103.5C33.12 142.329 64.6714 173.88 103.5 173.88C142.329 173.88 173.88 142.329 173.88 103.5C173.88 64.6714 142.329 33.12 103.5 33.12ZM103.5 41.4C137.849 41.4 165.6 69.151 165.6 103.5C165.6 137.849 137.849 165.6 103.5 165.6C69.151 165.6 41.4 137.849 41.4 103.5C41.4 69.151 69.151 41.4 103.5 41.4ZM90.3038 62.1V86.94L96.9019 93.5382L90.3038 100.266V144.9H116.696V120.06L110.098 113.462L116.696 106.734V62.1H90.3038Z" />
</svg>
