<svg width="50" height="50" viewBox="0 0 50 50" fill="none" xmlns="http://www.w3.org/2000/svg">
<path d="M41.4729 8.3911C41.2 7.16356 40.077 6.23951 38.8639 6.23951C38.4856 6.23951 38.1048 6.32622 37.7418 6.49709C34.3992 8.06041 31.0201 9.42566 27.2083 10.8666C26.7764 10.2894 26.7764 10.2894 25.5965 9.52767C22.6603 8.79234 21.749 9.42226 21.749 9.42226C21.3163 9.61098 20.9244 9.85836 20.5843 10.1533C20.5843 10.1533 14.6787 7.06495 13.055 5.13948C12.1301 4.04201 10.4903 3.9026 9.39199 4.82835C8.29537 5.7541 8.1551 7.39393 9.0817 8.49056C11.4144 11.2585 16.5557 13.6846 19.1264 15.7351C19.2956 15.8685 18.9317 14.9241 19.9417 17.1692C20.5546 18.5336 22.1519 22.2697 23.1321 24.5437C19.9281 26.2244 17.1219 28.5647 14.4543 31.0385C13.3823 32.0314 13.4138 33.8888 14.4543 34.8843C16.197 36.5581 18.159 37.9361 20.2621 39.1169C23.325 40.8349 26.0666 36.1365 23.0071 34.4218C22.1477 33.9381 21.3239 33.4315 20.5359 32.8747C22.248 31.4006 24.074 30.0294 26.0997 29.073C25.622 34.1634 26.2511 39.9976 27.8739 43.9505C29.1295 47.0058 34.1586 45.6686 32.886 42.5674C30.9223 37.7891 30.5432 29.7429 32.2349 24.8217C32.4559 24.1807 32.4193 23.618 32.2238 23.147C32.1703 22.7339 32.0793 22.3207 31.905 21.9195C31.3958 20.7506 29.6132 16.5171 29.1643 15.514C32.7585 14.1479 36.4862 12.6467 40.1841 10.9159C41.2187 10.4322 41.7109 9.46561 41.4729 8.3911Z" />
<path d="M33.2669 46.3372C32.5885 46.9033 32.3802 47.7475 32.3224 48.3374C31.9713 47.9005 31.5387 47.6353 31.0354 47.5468C29.9031 47.3479 28.7078 48.1028 28.123 48.5457C28.1536 47.5137 27.879 46.6491 27.3009 45.9733C26.1533 44.6285 24.244 44.5222 24.1632 44.5205L24.1445 44.9175C24.1641 44.9184 25.9629 45.017 26.9983 46.2326C27.584 46.922 27.8203 47.8435 27.6937 48.9759L27.6359 49.5029L28.0261 49.1433C28.0422 49.128 29.6098 47.7007 30.9665 47.9396C31.531 48.0408 31.9909 48.4275 32.3318 49.0889L32.8061 50.0002L32.7084 48.9759C32.7067 48.9606 32.5732 47.4346 33.5219 46.6415C34.1875 46.0881 35.2357 46.0073 36.635 46.4026L36.7412 46.0201C35.2094 45.5823 34.0388 45.6902 33.2669 46.3372Z" />
<path d="M23.1254 8.77807C25.5494 8.77807 27.5144 6.81304 27.5144 4.38904C27.5144 1.96504 25.5494 0 23.1254 0C20.7014 0 18.7363 1.96504 18.7363 4.38904C18.7363 6.81304 20.7014 8.77807 23.1254 8.77807Z" />
</svg>
