<svg width="50" height="50" viewBox="0 0 50 50" fill="none" xmlns="http://www.w3.org/2000/svg">
<path fill-rule="evenodd" clip-rule="evenodd" d="M44.4923 33.0635V15.9691C44.4923 7.16362 37.3287 0 28.5233 0C27.3209 0 26.1436 0.135803 25.0065 0.392532C23.8697 0.135803 22.6921 0 21.4901 0C12.6846 0 5.52063 7.16362 5.52063 15.9691V33.0631C4.02679 33.4892 2.92969 34.8652 2.92969 36.4941V46.4325C2.92969 48.3994 4.53033 50 6.49719 50C8.46443 50 10.0647 48.3994 10.0647 46.4325V36.4941C10.0647 34.8656 8.96759 33.4892 7.47375 33.0635V23.6156C10.1879 28.5709 15.453 31.9386 21.4901 31.9386C22.6921 31.9386 23.8697 31.8027 25.0065 31.546C26.1436 31.8027 27.3209 31.9386 28.5233 31.9386C34.5604 31.9386 39.8251 28.5709 42.5392 23.6156V33.0631C41.0454 33.4892 39.9483 34.8652 39.9483 36.4941V46.4325C39.9483 48.3994 41.5489 50 43.5158 50C45.483 50 47.0833 48.3994 47.0833 46.4325V36.4941C47.0833 34.8656 45.9862 33.4892 44.4923 33.0635ZM8.11157 36.4941V46.4325C8.11157 47.3228 7.38754 48.0469 6.49719 48.0469C5.60684 48.0469 4.88281 47.3228 4.88281 46.4325V36.4941C4.88281 35.6037 5.60684 34.8793 6.49719 34.8793C7.38754 34.8793 8.11157 35.6037 8.11157 36.4941ZM29.1649 29.9702C32.8983 27.9217 35.7685 24.4114 36.9198 20.0947C37.059 19.5736 36.7493 19.0384 36.2282 18.8995C35.7075 18.7607 35.1719 19.0701 35.0327 19.5911C33.7112 24.5457 29.8096 28.2902 25.0065 29.5368C20.2038 28.2902 16.3017 24.5461 14.9803 19.5911C14.8411 19.0701 14.307 18.7603 13.7852 18.8995C13.2641 19.0384 12.9543 19.5736 13.0932 20.0947C14.2445 24.4114 17.115 27.9217 20.8485 29.9702C13.4167 29.6337 7.47375 23.4829 7.47375 15.9695C7.47375 8.45604 13.4167 2.30484 20.8485 1.96838C17.115 4.01688 14.2445 7.52716 13.0932 11.8439C12.9543 12.365 13.2641 12.9002 13.7852 13.039C14.3059 13.1783 14.8415 12.8685 14.9803 12.3474C16.3017 7.39288 20.2038 3.64838 25.0065 2.40173C29.8096 3.64838 33.7112 7.3925 35.0327 12.3474C35.1719 12.8685 35.7071 13.1783 36.2282 13.039C36.7493 12.9002 37.059 12.365 36.9198 11.8439C35.7685 7.52716 32.8983 4.01688 29.1649 1.96838C36.5967 2.30484 42.5392 8.45566 42.5392 15.9691C42.5392 23.4829 36.5967 29.6337 29.1649 29.9702ZM45.1302 46.4325C45.1302 47.3228 44.4061 48.0469 43.5158 48.0469C42.6254 48.0469 41.9014 47.3228 41.9014 46.4325V36.4941C41.9014 35.6037 42.6258 34.8793 43.5158 34.8793C44.4061 34.8793 45.1302 35.6037 45.1302 36.4941V46.4325Z" />
<path fill-rule="evenodd" clip-rule="evenodd" d="M13.5303 14.9927C12.9924 14.9927 12.5537 15.4314 12.5537 15.9692C12.5537 16.5071 12.9924 16.9458 13.5303 16.9458C14.0681 16.9458 14.5068 16.5071 14.5068 15.9692C14.5068 15.4317 14.0681 14.9927 13.5303 14.9927Z" />
<path fill-rule="evenodd" clip-rule="evenodd" d="M36.4824 14.9927C35.9445 14.9927 35.5059 15.4314 35.5059 15.9692C35.5059 16.5071 35.9445 16.9458 36.4824 16.9458C37.0203 16.9458 37.459 16.5071 37.459 15.9692C37.459 15.4317 37.0203 14.9927 36.4824 14.9927Z" />
</svg>
