<svg width="207" height="207" viewBox="0 0 207 207" fill="none" xmlns="http://www.w3.org/2000/svg">
<path d="M100.266 6.46875C48.548 6.46875 6.46875 48.5447 6.46875 100.266C6.46875 151.987 48.548 194.062 100.266 194.062C151.983 194.062 194.062 151.987 194.062 100.266C194.062 48.5447 151.983 6.46875 100.266 6.46875ZM100.266 12.9375C148.419 12.9375 187.594 52.1123 187.594 100.266C187.594 148.419 148.419 187.594 100.266 187.594C52.1123 187.594 12.9375 148.419 12.9375 100.266C12.9375 52.1123 52.1123 12.9375 100.266 12.9375ZM99.4823 22.6533C86.8731 22.7953 74.4041 26.1198 63.4178 32.388C61.8685 33.2742 61.325 35.2481 62.2112 36.7973C62.8063 37.8453 63.8967 38.4335 65.0223 38.4335C65.5657 38.4335 66.1191 38.2981 66.6269 38.0102C79.9978 30.3803 95.7857 27.5266 111.062 29.9685C112.824 30.2531 114.488 29.0465 114.77 27.2837C115.054 25.521 113.848 23.857 112.085 23.5756C107.901 22.9069 103.685 22.6059 99.4823 22.6533ZM125.035 27.1195C123.776 27.1719 122.616 27.969 122.148 29.2231C121.517 30.8985 122.368 32.7586 124.043 33.3861C126.349 34.2497 128.635 35.2457 130.834 36.3551C131.303 36.5912 131.799 36.7026 132.287 36.7026C133.468 36.7026 134.611 36.053 135.18 34.9275C135.986 33.3329 135.341 31.3834 133.746 30.5813C131.34 29.3651 128.834 28.2724 126.305 27.3279C125.887 27.1703 125.455 27.102 125.035 27.1195ZM100.266 45.2812C84.2134 45.2812 71.1562 58.3417 71.1562 74.3906V84.0938H64.6875C61.12 84.0938 58.2188 86.995 58.2188 90.5625V97.0312C58.2188 98.215 58.5626 99.3178 59.1221 100.272C58.5626 101.229 58.2188 102.319 58.2188 103.5V109.969C58.2188 111.149 58.5626 112.246 59.1221 113.203C58.5626 114.16 58.2188 115.257 58.2188 116.438V122.906C58.2188 124.087 58.5626 125.177 59.1221 126.134C58.5626 127.088 58.2188 128.191 58.2188 129.375V135.844C58.2188 139.411 61.12 142.312 64.6875 142.312H135.844C139.411 142.312 142.312 139.411 142.312 135.844V129.375C142.312 128.191 141.969 127.088 141.409 126.134C141.969 125.177 142.312 124.087 142.312 122.906V116.438C142.312 115.257 141.969 114.16 141.409 113.203C141.969 112.246 142.312 111.149 142.312 109.969V103.5C142.312 102.319 141.969 101.229 141.409 100.272C141.969 99.3178 142.312 98.215 142.312 97.0312V90.5625C142.312 86.995 139.411 84.0938 135.844 84.0938H129.375V74.3906C129.375 58.3417 116.318 45.2812 100.266 45.2812ZM100.266 51.75C112.747 51.75 122.906 61.9059 122.906 74.3906V84.0938H77.625V74.3906C77.625 61.9059 87.7842 51.75 100.266 51.75ZM64.6875 90.5625H71.1562H129.375H135.844V97.0312H109.969H90.5625H64.6875V90.5625ZM64.6875 103.5H90.5625V109.969H64.6875V103.5ZM97.0312 103.5H103.5V122.906H97.0312V103.5ZM109.969 103.5H135.844V109.969H109.969V103.5ZM64.6875 116.438H90.5625V122.906H64.6875V116.438ZM109.969 116.438H135.844V122.906H109.969V116.438ZM64.6875 129.375H90.5625H109.969H135.844V135.844H64.6875V129.375ZM69.1284 156.526C67.8769 156.37 66.5991 156.956 65.932 158.118L62.6976 163.721C61.8049 165.267 62.3329 167.244 63.8789 168.137C64.3867 168.431 64.9399 168.573 65.4898 168.573C66.6089 168.573 67.6962 167.994 68.2946 166.956L71.529 161.352C72.4249 159.81 71.8969 157.833 70.3477 156.937C69.9611 156.713 69.5456 156.578 69.1284 156.526ZM131.396 156.526C130.98 156.578 130.568 156.713 130.184 156.937C128.634 157.829 128.106 159.813 129.002 161.359L132.237 166.956C132.838 167.994 133.922 168.573 135.041 168.573C135.591 168.573 136.145 168.438 136.652 168.143C138.202 167.251 138.73 165.267 137.834 163.721L134.599 158.124C133.927 156.962 132.646 156.37 131.396 156.526ZM117.038 162.831C116.621 162.773 116.181 162.796 115.749 162.913C114.025 163.375 113 165.153 113.462 166.88L115.142 173.128C115.527 174.573 116.834 175.528 118.263 175.528C118.541 175.528 118.822 175.492 119.103 175.414C120.827 174.952 121.853 173.181 121.39 171.453L119.716 165.199C119.369 163.904 118.286 163.003 117.038 162.831ZM83.4999 162.837C82.252 163.01 81.162 163.904 80.8152 165.199L79.1411 171.453C78.6786 173.181 79.704 174.952 81.4279 175.414C81.7093 175.489 81.9899 175.528 82.2681 175.528C83.6945 175.528 85.0039 174.573 85.3888 173.128L87.0691 166.88C87.5316 165.153 86.5062 163.372 84.7823 162.913C84.3521 162.797 83.9159 162.779 83.4999 162.837ZM100.266 164.953C98.477 164.953 97.0312 166.402 97.0312 168.188V174.656C97.0312 176.442 98.477 177.891 100.266 177.891C102.054 177.891 103.5 176.442 103.5 174.656V168.188C103.5 166.402 102.054 164.953 100.266 164.953Z"/>
</svg>
