<svg width="50" height="50" viewBox="0 0 50 50" fill="none" xmlns="http://www.w3.org/2000/svg">
<g clip-path="url(#clip0)">
<path d="M49.615 16.8123C48.2783 12.7158 43.8587 10.4707 39.7626 11.8069C38.066 12.3598 36.5982 13.4877 35.6296 14.9829C34.9547 16.0246 34.5401 17.2141 34.4125 18.4358C33.2557 17.6703 31.8754 17.2353 30.4126 17.2353C29.655 17.2353 28.9025 17.3548 28.1758 17.5905C28.1621 17.5949 28.1486 17.5997 28.1352 17.6051L17.5953 21.7651C16.0486 22.3747 14.7908 23.5318 14.0538 25.0229C13.2491 26.651 11.7492 27.9233 9.93847 28.514L2.73027 30.8649C1.72601 31.1926 0.909542 31.8915 0.431259 32.8329C-0.0471391 33.7743 -0.130068 34.8459 0.197488 35.8498C0.729363 37.4825 2.23998 38.5794 3.95641 38.5794C4.37071 38.5794 4.78293 38.5138 5.18255 38.3841L32.7715 29.3859L34.8778 35.9379C35.3856 37.5179 36.842 38.5795 38.5016 38.5795H40.8758C42.175 38.5795 43.2319 37.5226 43.2319 36.2233C43.2319 34.8677 42.2567 33.7356 40.9708 33.492L38.5828 26.1694C39.6964 26.7482 40.9321 27.0506 42.1846 27.0506C42.9953 27.0506 43.8129 26.9242 44.6085 26.6652C48.7044 25.3284 50.9503 20.9084 49.615 16.8123ZM41.8461 36.2231C41.8461 36.7581 41.4108 37.1933 40.8759 37.1933H38.5017C37.4464 37.1933 36.5203 36.5182 36.1972 35.5136L33.2016 26.2144C33.0835 25.8504 32.6926 25.6506 32.3286 25.7691C31.9645 25.8872 31.7652 26.278 31.8832 26.6422L32.3453 28.067L4.75371 37.066C4.49348 37.1504 4.22518 37.1934 3.95641 37.1934C2.84173 37.1934 1.86068 36.4809 1.51522 35.4201C1.30235 34.768 1.35629 34.072 1.66687 33.4607C1.97745 32.8492 2.50782 32.3953 3.16005 32.1826L10.3681 29.8316C12.5311 29.1262 14.3273 27.5972 15.2963 25.6371C15.8806 24.4551 16.8774 23.5378 18.1037 23.0545L28.6233 18.9026C29.2055 18.7162 29.8074 18.6214 30.4126 18.6214C32.9598 18.6214 35.1993 20.2504 35.9859 22.676L39.4973 33.4434H39.4197C39.037 33.4434 38.7267 33.7537 38.7267 34.1363C38.7267 34.519 39.037 34.8293 39.4197 34.8293C39.4197 34.8293 40.8167 34.8662 40.9795 34.9329C41.4874 35.1412 41.8461 35.6411 41.8461 36.2231ZM44.179 25.3472C41.984 26.0623 39.586 25.5475 37.8776 24.0066L37.304 22.2473C36.977 21.2391 36.4461 20.343 35.7665 19.5964C35.6041 16.7206 37.4337 14.0234 40.1922 13.1245C43.5616 12.0254 47.1977 13.8722 48.2973 17.2418C49.3958 20.6117 47.5482 24.2478 44.179 25.3472Z"/>
</g>
<defs>
<clipPath id="clip0">
<rect width="50" height="50"/>
</clipPath>
</defs>
</svg>
