<svg width="32" height="32" viewBox="0 0 32 32" fill="none" xmlns="http://www.w3.org/2000/svg">
<path d="M14.0352 1C13.5327 1 13.0661 1.24997 12.7871 1.66797L11.2324 4H5.5C4.673 4 4 4.673 4 5.5V8.5C4 9.327 4.673 10 5.5 10H5.5498L7.31445 26.7617C7.44795 28.0382 8.51728 29 9.80078 29H22.2002C23.4832 29 24.5515 28.0382 24.6855 26.7617L26.4502 10H26.5C27.327 10 28 9.327 28 8.5V5.5C28 4.673 27.327 4 26.5 4H20.7676L19.2129 1.66797C18.9339 1.24997 18.4673 1 17.9648 1H14.0352ZM14.0352 2H17.9648C18.1323 2 18.2879 2.08366 18.3809 2.22266L19.5664 4H12.4336L13.6191 2.22266C13.7121 2.08366 13.8677 2 14.0352 2ZM5.5 5H10.5664H21.4336H26.5C26.776 5 27 5.2245 27 5.5V8.5C27 8.7755 26.776 9 26.5 9H26H6C5.989 9 5.97975 9.00584 5.96875 9.00684C5.95825 9.00584 5.9485 9 5.9375 9H5.5C5.224 9 5 8.7755 5 8.5V5.5C5 5.2245 5.224 5 5.5 5ZM7 6C6.7235 6 6.5 6.224 6.5 6.5V7.5C6.5 7.776 6.7235 8 7 8C7.2765 8 7.5 7.776 7.5 7.5V6.5C7.5 6.224 7.2765 6 7 6ZM9.5 6C9.2235 6 9 6.224 9 6.5V7.5C9 7.776 9.2235 8 9.5 8C9.7765 8 10 7.776 10 7.5V6.5C10 6.224 9.7765 6 9.5 6ZM12 6C11.7235 6 11.5 6.224 11.5 6.5V7.5C11.5 7.776 11.7235 8 12 8C12.2765 8 12.5 7.776 12.5 7.5V6.5C12.5 6.224 12.2765 6 12 6ZM14.5 6C14.2235 6 14 6.224 14 6.5V7.5C14 7.776 14.2235 8 14.5 8C14.7765 8 15 7.776 15 7.5V6.5C15 6.224 14.7765 6 14.5 6ZM17.5 6C17.2235 6 17 6.224 17 6.5V7.5C17 7.776 17.2235 8 17.5 8C17.7765 8 18 7.776 18 7.5V6.5C18 6.224 17.7765 6 17.5 6ZM20 6C19.7235 6 19.5 6.224 19.5 6.5V7.5C19.5 7.776 19.7235 8 20 8C20.2765 8 20.5 7.776 20.5 7.5V6.5C20.5 6.224 20.2765 6 20 6ZM22.5 6C22.2235 6 22 6.224 22 6.5V7.5C22 7.776 22.2235 8 22.5 8C22.7765 8 23 7.776 23 7.5V6.5C23 6.224 22.7765 6 22.5 6ZM25 6C24.7235 6 24.5 6.224 24.5 6.5V7.5C24.5 7.776 24.7235 8 25 8C25.2765 8 25.5 7.776 25.5 7.5V6.5C25.5 6.224 25.2765 6 25 6ZM6.55469 10H25.4453L23.6914 26.6572C23.6109 27.4232 22.9692 28 22.1992 28H9.80078C9.03078 28 8.38909 27.4232 8.30859 26.6572L6.55469 10ZM10.5 26C10.2235 26 10 26.224 10 26.5C10 26.776 10.2235 27 10.5 27H17.5C17.7765 27 18 26.776 18 26.5C18 26.224 17.7765 26 17.5 26H10.5ZM19.5 26C19.2235 26 19 26.224 19 26.5C19 26.776 19.2235 27 19.5 27H21.5C21.7765 27 22 26.776 22 26.5C22 26.224 21.7765 26 21.5 26H19.5Z" fill="black"/>
</svg>
