<svg width="32" height="32" viewBox="0 0 32 32" fill="none" xmlns="http://www.w3.org/2000/svg">
<g clip-path="url(#clip0)">
<path d="M12.2342 22.3894C11.827 22.084 11.2568 22.1654 10.9514 22.5726C9.42429 24.5952 7.09628 25.7558 4.56465 25.7558H2.03981C1.53077 25.7558 1.12354 26.1631 1.12354 26.6721C1.12354 27.1811 1.53077 27.5884 2.03981 27.5884H4.57144C6.13928 27.5884 7.63926 27.2287 9.02385 26.5228C10.3474 25.8508 11.5215 24.8667 12.4175 23.6722C12.7161 23.2717 12.6414 22.6948 12.2342 22.3894Z"/>
<path d="M14.8201 9.50718C14.9898 9.63614 15.1866 9.69723 15.3835 9.69723C15.6549 9.69723 15.9264 9.57506 16.1097 9.34429C17.6368 7.376 19.9377 6.24932 22.4218 6.24932H27.7498L24.9059 9.09317C24.5462 9.45289 24.5462 10.0298 24.9059 10.3895C25.0824 10.566 25.3199 10.661 25.5507 10.661C25.7815 10.661 26.019 10.5728 26.1955 10.3895L30.6072 5.97784C30.9669 5.61811 30.9669 5.0412 30.6072 4.68148L26.1955 0.269792C25.8358 -0.0899305 25.2588 -0.0899305 24.8991 0.269792C24.5394 0.629514 24.5394 1.20643 24.8991 1.56615L27.743 4.40999H22.415C19.3608 4.40999 16.5305 5.79458 14.6504 8.21762C14.3518 8.62485 14.4197 9.19497 14.8201 9.50718Z"/>
<path d="M26.2021 21.6155C25.8424 21.2558 25.2654 21.2558 24.9057 21.6155C24.546 21.9753 24.546 22.5522 24.9057 22.9119L27.7496 25.7557H22.4216C18.0167 25.7557 14.4331 22.1721 14.4331 17.7672V14.2378C14.4331 8.82165 10.0282 4.41675 4.61196 4.41675H2.08034C1.5713 4.41675 1.16406 4.82398 1.16406 5.33302C1.16406 5.84206 1.5713 6.24929 2.08034 6.24929H4.61196C9.01686 6.24929 12.6005 9.83294 12.6005 14.2378V17.7672C12.6005 23.1834 17.0054 27.5883 22.4216 27.5883H27.7496L24.9057 30.4321C24.546 30.7918 24.546 31.3688 24.9057 31.7285C25.0822 31.905 25.3197 32 25.5505 32C25.7813 32 26.0188 31.9117 26.1953 31.7285L30.607 27.3168C30.9667 26.9571 30.9667 26.3802 30.607 26.0204L26.2021 21.6155Z"/>
</g>
<defs>
<clipPath id="clip0">
<rect width="32" height="32" />
</clipPath>
</defs>
</svg>
