<svg width="50" height="50" viewBox="0 0 50 50" fill="none" xmlns="http://www.w3.org/2000/svg">
<path d="M35.2451 32.3009V20.5921C35.2451 16.4261 32.7896 12.9452 29.3907 11.3285V8.8829C29.3907 6.4621 27.4212 4.49219 25 4.49219C22.5788 4.49219 20.6089 6.4621 20.6089 8.8829V11.3777C17.1936 13.089 14.7545 16.8243 14.7545 21.0888V32.3009C14.7545 34.7221 12.785 36.692 10.3638 36.692V39.6191H20.6089V41.0828C20.6089 43.504 22.5788 45.4735 25 45.4735C27.4212 45.4735 29.3907 43.504 29.3907 41.0828V39.6191H39.6362V36.692C37.215 36.692 35.2451 34.7221 35.2451 32.3009ZM23.5363 8.8829C23.5363 8.0761 24.1928 7.41959 25 7.41959C25.8068 7.41959 26.4637 8.0761 26.4637 8.8829V10.4492C25.8057 10.3561 25.1324 10.3256 24.4511 10.3611C24.1432 10.3771 23.838 10.4084 23.5363 10.453V8.8829ZM26.4637 41.0828C26.4637 41.89 25.8068 42.5465 25 42.5465C24.1928 42.5465 23.5363 41.89 23.5363 41.0828V39.6191H26.4637V41.0828ZM16.2148 36.692C17.1356 35.4679 17.6819 33.947 17.6819 32.3009V21.0892C17.6819 16.9853 20.7874 13.4842 24.6044 13.2843C28.8509 13.0608 32.3181 16.4387 32.3181 20.5921V32.3009C32.3181 33.947 32.8648 35.4683 33.7852 36.692H16.2148Z" />
<path d="M39.1485 10.3465H42.933L37.0786 16.2009H47.9303V13.2738H44.1457L50.0001 7.41943H39.1485V10.3465Z" />
<path d="M10.8517 13.2738H7.06711L12.9215 7.41943H2.06985V10.3465H5.85442L0 16.2009H10.8517V13.2738Z" />
</svg>
