<svg width="372" height="372" viewBox="0 0 372 372" fill="none" xmlns="http://www.w3.org/2000/svg">
<path d="M186 0C182.571 0 179.8 2.7714 179.8 6.2V88.6104C179.8 92.039 182.571 94.8104 186 94.8104C189.429 94.8104 192.2 92.039 192.2 88.6104V12.5116C285.07 15.7852 359.6 92.3552 359.6 186C359.6 281.722 281.722 359.6 186 359.6C90.2782 359.6 12.4 281.722 12.4 186C12.4 139.748 30.38 96.2302 63.0292 63.4632C65.4534 61.0328 65.441 57.1144 63.0168 54.6964C60.5864 52.2908 56.668 52.2908 54.25 54.7088C19.2634 89.8132 0 136.443 0 186C0 288.56 83.4396 372 186 372C288.56 372 372 288.56 372 186C372 83.4396 288.56 0 186 0Z"/>
<path d="M177.041 207.899C180.848 213.138 186.732 216.43 193.186 216.932C193.763 216.982 194.339 217.001 194.91 217.001C200.75 217.001 206.367 214.694 210.527 210.528C215.097 205.958 217.434 199.641 216.932 193.186C216.43 186.732 213.138 180.848 207.886 177.029L127.633 118.979C125.178 117.205 121.774 117.478 119.617 119.623C117.459 121.781 117.193 125.179 118.972 127.64L177.041 207.899ZM200.601 187.067C202.901 188.741 204.346 191.326 204.569 194.16C204.792 196.987 203.763 199.758 201.761 201.767C199.752 203.77 196.931 204.793 194.147 204.576C191.32 204.359 188.734 202.908 187.073 200.626L151.652 151.665L200.601 187.067Z"/>
</svg>
