<svg width="217" height="217" viewBox="0 0 217 217" fill="none" xmlns="http://www.w3.org/2000/svg">
<path d="M203.671 13.3226C195.086 4.73711 183.659 0.00793457 171.492 0.00793457C159.33 0.00793457 147.899 4.73711 139.323 13.3178L106.859 45.7813C102.519 50.117 101.623 56.5633 104.07 61.8283C94.2036 63.128 85.0823 67.5583 77.9293 74.7113L13.329 139.316C4.73395 147.907 0 159.333 0 171.486C0 183.643 4.72918 195.07 13.3242 203.66C21.9192 212.26 33.3459 216.994 45.5031 216.994C57.6556 216.994 69.0822 212.26 77.6725 203.665L110.141 171.196C112.825 168.512 114.31 164.935 114.31 161.135C114.31 159.02 113.808 156.995 112.935 155.13C122.806 153.835 131.932 149.41 139.071 142.266L203.671 77.6614C212.266 69.0663 217 57.6397 217 45.4968C217.005 33.3491 212.271 21.9176 203.671 13.3226ZM103.439 164.494L70.971 196.962C64.1694 203.764 55.1284 207.511 45.5087 207.511C35.889 207.511 26.8432 203.764 20.0416 196.958C13.2399 190.156 9.49254 181.11 9.49254 171.491C9.49254 161.876 13.2399 152.825 20.0416 146.028L84.6419 81.4278C91.4443 74.6254 100.489 70.8788 110.109 70.8788C119.729 70.8788 128.779 74.6262 135.576 81.4278C137.431 83.2825 137.431 86.285 135.576 88.1349C133.721 89.9895 130.724 89.9895 128.869 88.1349C123.855 83.1259 117.196 80.365 110.109 80.365C103.018 80.365 96.3579 83.1259 91.3441 88.1349L26.7438 152.73C21.7348 157.744 18.9739 164.403 18.9739 171.491C18.9739 178.573 21.7348 185.232 26.7438 190.246C31.7576 195.26 38.4169 198.02 45.5039 198.02C52.5909 198.02 59.2503 195.26 64.2593 190.251L96.7275 157.782C98.5822 155.928 101.58 155.928 103.435 157.782C105.289 159.637 105.289 162.639 103.439 164.494ZM74.7272 142.266C78.9254 146.465 83.8111 149.723 89.123 151.976L57.5554 183.544C54.3343 186.76 50.0558 188.534 45.5023 188.534C40.9488 188.534 36.6704 186.759 33.4493 183.539C30.2281 180.318 28.4593 176.039 28.4593 171.491C28.4593 166.937 30.2337 162.659 33.4493 159.437L98.0495 94.8419C101.271 91.6207 105.554 89.8472 110.107 89.8472C114.656 89.8472 118.939 91.6215 122.16 94.8371C124.84 97.5264 128.417 99.0067 132.217 99.0067C136.016 99.0067 139.592 97.5265 142.273 94.8419C144.967 92.1573 146.447 88.5808 146.447 84.7762C146.447 80.9771 144.962 77.4006 142.278 74.7153C138.079 70.5171 133.198 67.2538 127.891 65.0009L159.444 33.4477C162.655 30.236 166.934 28.4673 171.497 28.4673C176.055 28.4673 180.334 30.2368 183.55 33.4477C186.771 36.664 188.54 40.9425 188.54 45.496C188.54 50.0495 186.77 54.3279 183.55 57.549L118.95 122.154C115.738 125.366 111.46 127.13 106.901 127.13C102.343 127.13 98.0647 125.36 94.8483 122.149C92.1637 119.465 88.5872 117.98 84.7873 117.98C80.9875 117.98 77.4118 119.465 74.7264 122.149C72.0371 124.834 70.5569 128.41 70.5569 132.21C70.5577 136.01 72.0379 139.582 74.7272 142.266ZM196.964 70.9591L132.364 135.564C125.348 142.58 116.122 146.094 106.901 146.094C97.6807 146.094 88.4545 142.584 81.4342 135.559C79.5796 133.705 79.5796 130.707 81.4342 128.852C83.2889 126.998 86.2866 126.998 88.1412 128.852C98.4868 139.203 115.316 139.198 125.657 128.857L190.257 64.2521C195.271 59.2431 198.027 52.579 198.027 45.492C198.027 38.405 195.271 31.7457 190.257 26.7319C179.902 16.3816 163.082 16.3911 152.737 26.7319L120.273 59.1954C118.419 61.05 115.421 61.05 113.566 59.1954C111.712 57.3408 111.712 54.343 113.566 52.4884L146.03 20.0249C160.065 5.98439 182.919 5.98439 196.964 20.0249C203.77 26.8265 207.518 35.8723 207.513 45.492C207.514 55.1165 203.766 64.1575 196.964 70.9591Z"/>
</svg>
