<?xml version="1.0" encoding="utf-8"?><svg xmlns="http://www.w3.org/2000/svg" xmlns:xlink="http://www.w3.org/1999/xlink"><symbol viewBox="0 0 464 464" id="book" xmlns="http://www.w3.org/2000/svg"><path d="M429.339 279.14l-34.2-23.108v-69.323l34.2-22.645c1.848-1.387 3.235-3.235 3.235-5.546 0-2.311-1.387-4.622-3.235-5.546l-176.08-118.31c-2.311-1.387-5.546-1.387-7.857 0L28.192 179.776c-.925.462-1.387.924-1.85 1.849v.462c-.924 1.386-.924 2.31-.924 3.697v127.092c0 2.31 1.387 4.621 3.235 5.545l176.08 117.387c1.387.924 2.311 1.386 3.697 1.386 1.387 0 2.773-.462 3.698-1.386l217.673-145.116c1.848-1.386 3.235-3.235 3.235-5.546-.462-2.772-1.849-5.083-3.697-6.007zM249.562 48.988l163.601 109.068-26.804 17.562c-1.387.462-2.773 1.386-3.698 2.31L207.968 294.391l-131.25-87.347c-.463-.462-.925-.462-.925-.924l-31.427-20.797L249.563 48.988zM79.028 225.53l124.781 83.187c2.311 1.387 5.546 1.387 7.856 0l169.61-113.227v56.845L208.892 366.024 79.028 282.837V225.53zm128.94 195.952L38.821 308.717V198.725l26.805 17.562v70.247c0 2.311 1.386 4.621 3.235 6.008l136.796 87.809c.925.924 2.311.924 3.698.924 1.386 0 2.773-.462 3.697-.924l172.844-113.69 27.267 18.486-205.195 136.335z"/><path d="M219.522 112.303l82.263 56.382c1.386.925 2.773 1.387 3.697 1.387 2.311 0 4.16-.925 5.546-3.235 2.311-3.235 1.386-7.395-1.849-9.706l-81.8-56.382c-3.235-2.31-7.395-1.386-9.706 1.849-2.31 3.235-1.386 7.394 1.849 9.705z"/></symbol><symbol viewBox="0 0 24 24" id="check-mark" xmlns="http://www.w3.org/2000/svg"><path d="M20.285 2L9 13.567 3.714 8.556 0 12.272 9 21 24 5.715z"/></symbol><symbol viewBox="0 0 348.333 348.334" id="delete" xmlns="http://www.w3.org/2000/svg"><path d="M336.559 68.611L231.016 174.165l105.543 105.549c15.699 15.705 15.699 41.145 0 56.85-7.844 7.844-18.128 11.769-28.407 11.769-10.296 0-20.581-3.919-28.419-11.769L174.167 231.003 68.609 336.563c-7.843 7.844-18.128 11.769-28.416 11.769-10.285 0-20.563-3.919-28.413-11.769-15.699-15.698-15.699-41.139 0-56.85l105.54-105.549L11.774 68.611c-15.699-15.699-15.699-41.145 0-56.844 15.696-15.687 41.127-15.687 56.829 0l105.563 105.554L279.721 11.767c15.705-15.687 41.139-15.687 56.832 0 15.705 15.699 15.705 41.145.006 56.844z"/></symbol><symbol viewBox="0 0 50 50" id="dumbell" xmlns="http://www.w3.org/2000/svg"><path d="M46.74 15.217h-2.175c-.382 0-.745.079-1.087.2v-3.46a3.265 3.265 0 0 0-3.26-3.261h-2.175a3.265 3.265 0 0 0-3.26 3.26v7.61H15.217v-7.61a3.265 3.265 0 0 0-3.26-3.26H9.783a3.265 3.265 0 0 0-3.261 3.26v3.461a3.225 3.225 0 0 0-1.087-.2H3.26A3.265 3.265 0 0 0 0 18.478v13.044a3.265 3.265 0 0 0 3.26 3.26h2.175c.382 0 .745-.078 1.087-.2v3.461a3.265 3.265 0 0 0 3.26 3.261h2.175a3.265 3.265 0 0 0 3.26-3.26v-7.61h19.566v7.61a3.265 3.265 0 0 0 3.26 3.26h2.174a3.265 3.265 0 0 0 3.261-3.26v-3.461c.342.121.705.2 1.087.2h2.174A3.265 3.265 0 0 0 50 31.521V18.478a3.265 3.265 0 0 0-3.26-3.26zM6.521 31.522c0 .599-.488 1.087-1.087 1.087H3.26a1.089 1.089 0 0 1-1.087-1.087V18.478c0-.599.488-1.087 1.087-1.087h2.174c.599 0 1.087.488 1.087 1.087v13.044zm6.521 6.521c0 .6-.488 1.087-1.086 1.087H9.783a1.089 1.089 0 0 1-1.087-1.087V11.956c0-.598.488-1.086 1.087-1.086h2.174c.598 0 1.086.488 1.086 1.086v26.087zm21.74-9.782H15.217v-6.522h19.566v6.522zm6.521-9.783v19.565c0 .6-.488 1.087-1.087 1.087h-2.173a1.089 1.089 0 0 1-1.087-1.087V11.956c0-.598.488-1.086 1.087-1.086h2.173c.6 0 1.087.488 1.087 1.086v6.522zm6.522 13.044c0 .599-.488 1.087-1.087 1.087h-2.174a1.089 1.089 0 0 1-1.087-1.087V18.478c0-.599.488-1.087 1.087-1.087h2.174c.599 0 1.087.488 1.087 1.087v13.044z"/></symbol><symbol viewBox="0 0 50 50" id="happy-man-jumping" xmlns="http://www.w3.org/2000/svg"><g clip-path="url(#eclip0)"><path d="M38.553 38.143c-1.386-3.343-2.656-6.706-3.701-10.172a5.964 5.964 0 0 0-.127-.622l-3.022-11.226c2.663-1.184 5.072-3.076 7.059-5.143.733-.764.938-1.965.372-2.891l-4.25-6.955c-1.6-2.62-5.73-.225-4.121 2.41 1.09 1.786 2.184 3.572 3.274 5.36-1.745 1.562-3.764 2.889-6.012 3.469-.121.031-.224.078-.332.12a4.11 4.11 0 0 0-1.666.239c-.327.122-.62.279-.886.457-.021 0-.04-.006-.06-.007-4.041-.084-7.645-1.375-11.024-3.552-2.595-1.671-4.986 2.46-2.41 4.121 3.624 2.334 7.598 3.756 11.848 4.114.02.097.041.195.067.29l3.272 12.152v.003c-2.93 2.305-5.714 4.827-8.885 6.79-2.61 1.616-.216 5.743 2.408 4.12 3.627-2.243 6.736-5.21 10.14-7.754.187-.139.34-.291.472-.453.17-.005.341-.017.506-.042a120.07 120.07 0 0 0 2.194 5.744c-2.152 2.395-4.106 4.954-5.752 7.728-1.574 2.654 2.553 5.054 4.12 2.41 1.726-2.91 3.791-5.511 6.112-7.967.702-.744.789-1.612.526-2.361a2.268 2.268 0 0 0-.122-.382z"/><path d="M25.07 11.009a4.335 4.335 0 1 0 0-8.671 4.335 4.335 0 0 0 0 8.67z"/></g><defs><clipPath id="eclip0"><path d="M0 0h50v50H0z"/></clipPath></defs></symbol><symbol viewBox="0 0 50 50" id="jump-rope" xmlns="http://www.w3.org/2000/svg"><path clip-rule="evenodd" d="M44.492 33.063V15.97C44.492 7.164 37.33 0 28.523 0c-1.202 0-2.38.136-3.517.393A15.953 15.953 0 0 0 21.49 0C12.685 0 5.52 7.164 5.52 15.97v17.093a3.573 3.573 0 0 0-2.59 3.431v9.938C2.93 48.4 4.53 50 6.497 50s3.568-1.6 3.568-3.568v-9.938a3.573 3.573 0 0 0-2.591-3.43v-9.448c2.714 4.955 7.979 8.323 14.016 8.323 1.202 0 2.38-.136 3.517-.393 1.137.257 2.314.393 3.516.393 6.037 0 11.302-3.368 14.016-8.323v9.447a3.573 3.573 0 0 0-2.59 3.431v9.938c0 1.967 1.6 3.568 3.567 3.568s3.567-1.6 3.567-3.568v-9.938a3.573 3.573 0 0 0-2.59-3.43zm-36.38 3.431v9.938c0 .89-.724 1.615-1.615 1.615-.89 0-1.614-.724-1.614-1.614v-9.939c0-.89.724-1.615 1.614-1.615.89 0 1.615.725 1.615 1.615zm21.053-6.524a15.956 15.956 0 0 0 7.755-9.875.976.976 0 1 0-1.887-.504c-1.322 4.955-5.223 8.7-10.027 9.946-4.802-1.247-8.704-4.99-10.026-9.946a.976.976 0 1 0-1.887.504 15.957 15.957 0 0 0 7.756 9.875c-7.432-.336-13.375-6.487-13.375-14 0-7.514 5.943-13.665 13.375-14.002a15.957 15.957 0 0 0-7.756 9.876.976.976 0 0 0 1.887.503c1.322-4.954 5.224-8.699 10.026-9.945 4.804 1.246 8.705 4.99 10.027 9.945a.977.977 0 0 0 1.887-.503 15.956 15.956 0 0 0-7.755-9.876c7.432.337 13.374 6.488 13.374 14.001 0 7.514-5.942 13.665-13.374 14.001zM45.13 46.432c0 .89-.724 1.615-1.614 1.615-.89 0-1.615-.724-1.615-1.614v-9.939c0-.89.725-1.615 1.615-1.615s1.614.725 1.614 1.615v9.938z"/><path clip-rule="evenodd" d="M13.53 14.993a.978.978 0 0 0-.976.976c0 .538.438.977.976.977a.978.978 0 0 0 .977-.977.979.979 0 0 0-.977-.976zm22.952 0a.978.978 0 0 0-.976.976c0 .538.438.977.976.977a.978.978 0 0 0 .977-.977.979.979 0 0 0-.977-.976z"/></symbol><symbol viewBox="0 0 50 50" id="jumping-man" xmlns="http://www.w3.org/2000/svg"><path d="M41.473 8.391c-.273-1.227-1.396-2.151-2.61-2.151-.377 0-.758.086-1.121.257-3.343 1.563-6.722 2.929-10.534 4.37-.432-.578-.432-.578-1.611-1.34-2.937-.735-3.848-.105-3.848-.105a4.554 4.554 0 0 0-1.165.731S14.68 7.065 13.055 5.14a2.6 2.6 0 1 0-3.973 3.352c2.332 2.768 7.474 5.194 10.044 7.244.17.133-.194-.81.816 1.434.613 1.365 2.21 5.1 3.19 7.375-3.204 1.68-6.01 4.02-8.678 6.494-1.072.993-1.04 2.85 0 3.846 1.743 1.674 3.705 3.052 5.808 4.233 3.063 1.718 5.805-2.98 2.745-4.695-.86-.484-1.683-.99-2.471-1.547 1.712-1.474 3.538-2.846 5.564-3.802-.478 5.09.151 10.925 1.774 14.877 1.256 3.056 6.285 1.719 5.012-1.383-1.964-4.778-2.343-12.824-.651-17.745.22-.641.184-1.204-.011-1.675a4.493 4.493 0 0 0-.319-1.227c-.51-1.17-2.292-5.403-2.74-6.406 3.593-1.366 7.321-2.867 11.02-4.598 1.034-.484 1.526-1.45 1.288-2.525z"/><path d="M33.267 46.337c-.678.566-.887 1.41-.945 2-.35-.437-.783-.702-1.287-.79-1.132-.2-2.327.556-2.912.999.03-1.032-.244-1.897-.822-2.573-1.148-1.344-3.057-1.45-3.138-1.453l-.018.397c.02.001 1.818.1 2.853 1.316.586.689.822 1.61.696 2.743l-.058.527.39-.36c.016-.015 1.584-1.442 2.94-1.203.565.1 1.025.488 1.366 1.149l.474.911-.098-1.024c-.001-.015-.135-1.541.814-2.334.666-.554 1.714-.635 3.113-.24l.106-.382c-1.532-.438-2.702-.33-3.474.317zM23.125 8.778a4.389 4.389 0 1 0 0-8.778 4.389 4.389 0 0 0 0 8.778z"/></symbol><symbol viewBox="0 0 207 207" id="keepass" xmlns="http://www.w3.org/2000/svg"><path d="M100.266 6.469c-51.718 0-93.797 42.076-93.797 93.797s42.079 93.796 93.797 93.796c51.717 0 93.796-42.075 93.796-93.796 0-51.721-42.079-93.797-93.796-93.797zm0 6.468c48.153 0 87.328 39.175 87.328 87.329 0 48.153-39.175 87.328-87.328 87.328-48.154 0-87.329-39.175-87.329-87.328 0-48.154 39.175-87.329 87.329-87.329zm-.784 9.716c-12.609.142-25.078 3.467-36.064 9.735a3.233 3.233 0 0 0-1.207 4.41 3.227 3.227 0 0 0 2.811 1.636c.544 0 1.097-.136 1.605-.424 13.37-7.63 29.159-10.483 44.435-8.041a3.239 3.239 0 0 0 3.708-2.685 3.239 3.239 0 0 0-2.685-3.708c-4.184-.67-8.4-.97-12.603-.923zm25.553 4.466a3.229 3.229 0 0 0-2.887 2.104 3.228 3.228 0 0 0 1.895 4.163 68.354 68.354 0 0 1 6.791 2.97 3.24 3.24 0 0 0 4.346-1.428 3.235 3.235 0 0 0-1.434-4.347 73.775 73.775 0 0 0-7.441-3.253 3.221 3.221 0 0 0-1.27-.209zm-24.769 18.162c-16.053 0-29.11 13.06-29.11 29.11v9.703h-6.469a6.475 6.475 0 0 0-6.468 6.469v6.468c0 1.184.344 2.287.903 3.241-.56.957-.903 2.047-.903 3.228v6.469c0 1.18.344 2.277.903 3.234-.56.957-.903 2.054-.903 3.235v6.468c0 1.181.344 2.271.903 3.228a6.393 6.393 0 0 0-.903 3.241v6.469a6.475 6.475 0 0 0 6.468 6.468h71.157a6.475 6.475 0 0 0 6.468-6.468v-6.469a6.387 6.387 0 0 0-.903-3.241c.56-.957.903-2.047.903-3.228v-6.468c0-1.181-.343-2.278-.903-3.235.56-.957.903-2.054.903-3.234V103.5c0-1.181-.343-2.271-.903-3.228.56-.954.903-2.057.903-3.24v-6.47a6.475 6.475 0 0 0-6.468-6.468h-6.469V74.39c0-16.05-13.057-29.11-29.109-29.11zm0 6.469c12.481 0 22.64 10.156 22.64 22.64v9.704H77.625V74.39c0-12.485 10.16-22.641 22.641-22.641zM64.687 90.563h71.157v6.468H64.687v-6.469zm0 12.937h25.876v6.469H64.686V103.5zm32.344 0h6.469v19.406h-6.469V103.5zm12.938 0h25.875v6.469h-25.875V103.5zm-45.281 12.938h25.874v6.468H64.689v-6.468zm45.281 0h25.875v6.468h-25.875v-6.468zm-45.281 12.937h71.156v6.469H64.688v-6.469zm4.44 27.151a3.22 3.22 0 0 0-3.196 1.592l-3.234 5.603a3.232 3.232 0 0 0 1.18 4.416 3.23 3.23 0 0 0 4.416-1.181l3.235-5.604a3.227 3.227 0 0 0-1.181-4.415 3.226 3.226 0 0 0-1.22-.411zm62.268 0a3.185 3.185 0 0 0-1.212.411 3.233 3.233 0 0 0-1.182 4.422l3.235 5.597a3.232 3.232 0 0 0 2.804 1.617 3.233 3.233 0 0 0 2.793-4.852l-3.235-5.597a3.24 3.24 0 0 0-3.203-1.598zm-14.358 6.305a3.24 3.24 0 0 0-3.576 4.049l1.68 6.248a3.234 3.234 0 0 0 3.121 2.4c.278 0 .559-.036.84-.114a3.233 3.233 0 0 0 2.287-3.961l-1.674-6.254a3.231 3.231 0 0 0-2.678-2.368zm-33.538.006a3.234 3.234 0 0 0-2.685 2.362l-1.674 6.254a3.234 3.234 0 0 0 2.287 3.961c.281.075.562.114.84.114a3.235 3.235 0 0 0 3.12-2.4l1.681-6.248a3.24 3.24 0 0 0-2.287-3.967 3.214 3.214 0 0 0-1.282-.076zm16.766 2.116a3.234 3.234 0 0 0-3.235 3.235v6.468a3.234 3.234 0 1 0 6.469 0v-6.468a3.234 3.234 0 0 0-3.234-3.235z"/></symbol><symbol viewBox="0 0 207 207" id="news" xmlns="http://www.w3.org/2000/svg"><path d="M0 0v172.5C0 191.468 15.532 207 34.5 207h138c18.968 0 34.5-15.532 34.5-34.5v-138h-51.75V0H0zm17.25 17.25H138V172.5c0 6.401 2.291 12.095 5.391 17.25H34.5c-9.636 0-17.25-7.614-17.25-17.25V17.25zM34.5 34.5v25.875h86.25V34.5H34.5zm120.75 17.25h34.5V172.5c0 9.636-7.614 17.25-17.25 17.25s-17.25-7.614-17.25-17.25v-8.625h17.25v-17.25h-17.25V138h17.25v-17.25h-17.25v-8.625h17.25v-17.25h-17.25V86.25h17.25V69h-17.25V51.75zM34.5 77.625v17.25H69v-17.25H34.5zm51.75 0v17.25h34.5v-17.25h-34.5zM34.5 103.5v17.25H69V103.5H34.5zm51.75 0v17.25h34.5V103.5h-34.5zM34.5 129.375v17.25H69v-17.25H34.5zm51.75 0v17.25h34.5v-17.25h-34.5zM34.5 155.25v17.25H69v-17.25H34.5zm51.75 0v17.25h34.5v-17.25h-34.5z"/></symbol><symbol viewBox="0 0 207 207" id="password" xmlns="http://www.w3.org/2000/svg"><path d="M103.5 8.28c-52.542 0-95.22 42.678-95.22 95.22s42.678 95.22 95.22 95.22 95.22-42.678 95.22-95.22S156.042 8.28 103.5 8.28zm0 8.28c48.063 0 86.94 38.877 86.94 86.94 0 48.063-38.877 86.94-86.94 86.94-48.063 0-86.94-38.877-86.94-86.94 0-48.063 38.877-86.94 86.94-86.94zm0 16.56c-38.829 0-70.38 31.551-70.38 70.38 0 38.829 31.551 70.38 70.38 70.38 38.829 0 70.38-31.551 70.38-70.38 0-38.829-31.551-70.38-70.38-70.38zm0 8.28c34.349 0 62.1 27.751 62.1 62.1 0 34.349-27.751 62.1-62.1 62.1-34.349 0-62.1-27.751-62.1-62.1 0-34.349 27.751-62.1 62.1-62.1zM90.304 62.1v24.84l6.598 6.598-6.598 6.728V144.9h26.392v-24.84l-6.598-6.598 6.598-6.728V62.1H90.304z"/></symbol><symbol viewBox="0 0 304.223 304.223" id="plus" xmlns="http://www.w3.org/2000/svg"><g><path d="M152.112 0C68.241 0 .008 68.244.008 152.114c0 83.865 68.233 152.109 152.103 152.109 83.865 0 152.103-68.244 152.103-152.109C304.215 68.244 235.977 0 152.112 0zm0 275.989c-68.32 0-123.891-55.565-123.891-123.875 0-68.326 55.571-123.891 123.891-123.891s123.891 55.565 123.891 123.891c0 68.31-55.577 123.875-123.891 123.875z"/><path d="M221.922 139.186h-56.887V82.298c0-7.141-5.782-12.929-12.923-12.929s-12.929 5.782-12.929 12.929v56.887H82.296c-7.141 0-12.923 5.782-12.923 12.929 0 7.141 5.782 12.923 12.923 12.923h56.882v56.893c0 7.142 5.787 12.923 12.929 12.923 7.141 0 12.929-5.782 12.929-12.923v-56.893h56.882c7.142 0 12.929-5.782 12.929-12.923.004-7.147-5.784-12.928-12.925-12.928z"/></g></symbol><symbol viewBox="0 0 50 50" id="pushups-exercises" xmlns="http://www.w3.org/2000/svg"><g clip-path="url(#lclip0)"><path d="M49.615 16.812c-1.337-4.096-5.756-6.341-9.852-5.005a7.829 7.829 0 0 0-4.133 3.176 7.865 7.865 0 0 0-1.218 3.453 7.232 7.232 0 0 0-6.277-.83l-10.54 4.16a6.673 6.673 0 0 0-3.541 3.257c-.805 1.628-2.305 2.9-4.116 3.491l-7.208 2.35a3.929 3.929 0 0 0-2.299 1.969 3.927 3.927 0 0 0-.234 3.017 3.944 3.944 0 0 0 4.986 2.534l27.589-8.998 2.106 6.552a3.795 3.795 0 0 0 3.624 2.642h2.374a2.359 2.359 0 0 0 2.356-2.357 2.784 2.784 0 0 0-2.261-2.731l-2.388-7.323a7.811 7.811 0 0 0 6.026.496c4.095-1.337 6.341-5.757 5.006-9.853zm-7.769 19.411a.97.97 0 0 1-.97.97h-2.374a2.414 2.414 0 0 1-2.305-1.68l-2.995-9.299a.693.693 0 1 0-1.319.428l.462 1.425-27.591 8.999a2.562 2.562 0 0 1-3.238-1.646 2.55 2.55 0 0 1 .15-1.96 2.55 2.55 0 0 1 1.494-1.277l7.208-2.351c2.163-.706 3.96-2.235 4.928-4.195a5.29 5.29 0 0 1 2.808-2.582l10.52-4.152a5.845 5.845 0 0 1 7.363 3.773l3.51 10.767h-.077a.693.693 0 0 0 0 1.386s1.397.037 1.56.104c.507.208.866.708.866 1.29zm2.333-10.876a6.427 6.427 0 0 1-6.301-1.34l-.574-1.76a7.256 7.256 0 0 0-1.538-2.65c-.162-2.876 1.668-5.574 4.426-6.473a6.436 6.436 0 0 1 8.105 4.118 6.438 6.438 0 0 1-4.118 8.105z"/></g><defs><clipPath id="lclip0"><path d="M0 0h50v50H0z"/></clipPath></defs></symbol><symbol viewBox="0 0 32 32" id="remove" xmlns="http://www.w3.org/2000/svg"><path d="M14.035 1c-.502 0-.969.25-1.248.668L11.232 4H5.5C4.673 4 4 4.673 4 5.5v3c0 .827.673 1.5 1.5 1.5h.05l1.764 16.762A2.493 2.493 0 0 0 9.801 29h12.4a2.493 2.493 0 0 0 2.485-2.238L26.45 10h.05c.827 0 1.5-.673 1.5-1.5v-3c0-.827-.673-1.5-1.5-1.5h-5.732l-1.555-2.332A1.498 1.498 0 0 0 17.965 1h-3.93zm0 1h3.93a.5.5 0 0 1 .416.223L19.566 4h-7.132l1.185-1.777A.5.5 0 0 1 14.035 2zM5.5 5h21a.5.5 0 0 1 .5.5v3a.5.5 0 0 1-.5.5H6c-.011 0-.02.006-.031.007-.01-.001-.02-.007-.032-.007H5.5a.5.5 0 0 1-.5-.5v-3a.5.5 0 0 1 .5-.5zM7 6a.5.5 0 0 0-.5.5v1a.5.5 0 1 0 1 0v-1A.5.5 0 0 0 7 6zm2.5 0a.5.5 0 0 0-.5.5v1a.5.5 0 1 0 1 0v-1a.5.5 0 0 0-.5-.5zM12 6a.5.5 0 0 0-.5.5v1a.5.5 0 1 0 1 0v-1A.5.5 0 0 0 12 6zm2.5 0a.5.5 0 0 0-.5.5v1a.5.5 0 1 0 1 0v-1a.5.5 0 0 0-.5-.5zm3 0a.5.5 0 0 0-.5.5v1a.5.5 0 1 0 1 0v-1a.5.5 0 0 0-.5-.5zM20 6a.5.5 0 0 0-.5.5v1a.5.5 0 1 0 1 0v-1A.5.5 0 0 0 20 6zm2.5 0a.5.5 0 0 0-.5.5v1a.5.5 0 1 0 1 0v-1a.5.5 0 0 0-.5-.5zM25 6a.5.5 0 0 0-.5.5v1a.5.5 0 1 0 1 0v-1A.5.5 0 0 0 25 6zM6.555 10h18.89l-1.754 16.657A1.497 1.497 0 0 1 22.2 28H9.801c-.77 0-1.412-.577-1.492-1.343L6.555 10zM10.5 26a.5.5 0 1 0 0 1h7a.5.5 0 1 0 0-1h-7zm9 0a.5.5 0 1 0 0 1h2a.5.5 0 1 0 0-1h-2z"/></symbol><symbol viewBox="0 0 32 32" id="shuffle" xmlns="http://www.w3.org/2000/svg"><g clip-path="url(#nclip0)"><path d="M12.234 22.39a.913.913 0 0 0-1.283.183 7.94 7.94 0 0 1-6.386 3.183H2.04a.913.913 0 0 0-.916.916c0 .51.407.916.916.916h2.53c1.568 0 3.068-.36 4.453-1.065a9.826 9.826 0 0 0 3.394-2.85.92.92 0 0 0-.184-1.284zM14.82 9.507a.925.925 0 0 0 1.29-.163 7.937 7.937 0 0 1 6.312-3.095h5.328l-2.844 2.844a.914.914 0 0 0 0 1.296.922.922 0 0 0 .645.272c.23 0 .468-.088.645-.271l4.411-4.412a.914.914 0 0 0 0-1.297L26.195.27a.914.914 0 0 0-1.296 0 .914.914 0 0 0 0 1.296l2.844 2.844h-5.328a9.764 9.764 0 0 0-7.765 3.808.932.932 0 0 0 .17 1.29z"/><path d="M26.202 21.616a.914.914 0 0 0-1.296 0 .914.914 0 0 0 0 1.296l2.844 2.844h-5.328c-4.405 0-7.989-3.584-7.989-7.989v-3.53c0-5.415-4.405-9.82-9.821-9.82H2.08a.912.912 0 0 0-.916.916c0 .51.407.916.916.916h2.532c4.405 0 7.989 3.584 7.989 7.989v3.53c0 5.415 4.404 9.82 9.82 9.82h5.329l-2.844 2.844a.914.914 0 0 0 0 1.297.922.922 0 0 0 .645.271c.23 0 .468-.088.644-.271l4.412-4.412a.914.914 0 0 0 0-1.297l-4.405-4.404z"/></g><defs><clipPath id="nclip0"><path d="M0 0h32v32H0z"/></clipPath></defs></symbol><symbol viewBox="0 0 50 50" id="snooze" xmlns="http://www.w3.org/2000/svg"><path d="M35.245 32.3V20.593c0-4.166-2.455-7.647-5.854-9.263V8.883c0-2.42-1.97-4.39-4.391-4.39a4.396 4.396 0 0 0-4.391 4.39v2.495c-3.415 1.711-5.855 5.446-5.855 9.71v11.213a4.396 4.396 0 0 1-4.39 4.391v2.927h10.245v1.464c0 2.421 1.97 4.39 4.391 4.39a4.395 4.395 0 0 0 4.39-4.39v-1.464h10.246v-2.927a4.396 4.396 0 0 1-4.39-4.391zM23.536 8.884a1.465 1.465 0 0 1 2.928 0v1.566a10.47 10.47 0 0 0-2.013-.088 9.696 9.696 0 0 0-.915.092v-1.57zm2.928 32.2c0 .807-.657 1.464-1.464 1.464a1.465 1.465 0 0 1-1.464-1.464V39.62h2.928v1.464zm-10.25-4.391a7.281 7.281 0 0 0 1.468-4.391V21.089c0-4.104 3.105-7.605 6.922-7.805a7.315 7.315 0 0 1 7.714 7.308v11.709c0 1.646.547 3.167 1.467 4.391h-17.57zm22.934-26.346h3.785L37.079 16.2H47.93v-2.927h-3.784L50 7.419H39.148v2.928zm-28.296 2.927H7.067l5.854-5.855H2.07v2.928h3.784L0 16.2h10.852v-2.927z"/></symbol><symbol viewBox="0 0 372 372" id="timer" xmlns="http://www.w3.org/2000/svg"><path d="M186 0a6.194 6.194 0 0 0-6.2 6.2v82.41c0 3.429 2.771 6.2 6.2 6.2 3.429 0 6.2-2.771 6.2-6.2V12.512C285.07 15.785 359.6 92.355 359.6 186c0 95.722-77.878 173.6-173.6 173.6S12.4 281.722 12.4 186c0-46.252 17.98-89.77 50.63-122.537a6.193 6.193 0 0 0-.013-8.767c-2.43-2.405-6.349-2.405-8.767.013C19.263 89.813 0 136.443 0 186c0 102.56 83.44 186 186 186s186-83.44 186-186S288.56 0 186 0z"/><path d="M177.041 207.899a22.042 22.042 0 0 0 16.145 9.033 22.05 22.05 0 0 0 17.341-6.404 22.069 22.069 0 0 0 6.405-17.342 22.06 22.06 0 0 0-9.046-16.157l-80.253-58.05c-2.455-1.774-5.859-1.501-8.016.644a6.201 6.201 0 0 0-.645 8.017l58.069 80.259zm23.56-20.832a9.702 9.702 0 0 1 1.16 14.7 9.779 9.779 0 0 1-7.614 2.809 9.672 9.672 0 0 1-7.074-3.95l-35.421-48.961 48.949 35.402z"/></symbol><symbol viewBox="0 0 217 217" id="two-links" xmlns="http://www.w3.org/2000/svg"><path d="M203.671 13.323C195.086 4.737 183.659.008 171.492.008c-12.162 0-23.593 4.73-32.169 13.31L106.859 45.78c-4.34 4.336-5.236 10.782-2.789 16.047-9.866 1.3-18.988 5.73-26.14 12.883l-64.601 64.605C4.734 147.907 0 159.333 0 171.486c0 12.157 4.73 23.584 13.324 32.174 8.595 8.6 20.022 13.334 32.18 13.334 12.152 0 23.578-4.734 32.169-13.329l32.468-32.469a14.146 14.146 0 0 0 4.169-10.061c0-2.115-.502-4.14-1.375-6.005 9.871-1.295 18.997-5.72 26.136-12.864l64.6-64.605C212.266 69.066 217 57.64 217 45.497c.005-12.148-4.729-23.58-13.329-32.174zM103.439 164.494l-32.468 32.468c-6.802 6.802-15.843 10.549-25.462 10.549-9.62 0-18.666-3.747-25.467-10.553-6.802-6.802-10.55-15.848-10.55-25.467 0-9.615 3.748-18.666 10.55-25.463l64.6-64.6c6.802-6.803 15.847-10.55 25.467-10.55s18.67 3.748 25.467 10.55a4.737 4.737 0 0 1 0 6.707 4.738 4.738 0 0 1-6.707 0c-5.014-5.01-11.673-7.77-18.76-7.77-7.091 0-13.751 2.76-18.765 7.77l-64.6 64.595c-5.01 5.014-7.77 11.673-7.77 18.761 0 7.082 2.76 13.741 7.77 18.755 5.014 5.014 11.673 7.774 18.76 7.774 7.087 0 13.746-2.76 18.755-7.769l32.469-32.469a4.74 4.74 0 0 1 6.707 0 4.749 4.749 0 0 1 .004 6.712zm-28.712-22.228a45.365 45.365 0 0 0 14.396 9.71l-31.568 31.568a16.948 16.948 0 0 1-12.053 4.99 16.936 16.936 0 0 1-12.053-4.995 16.924 16.924 0 0 1-4.99-12.048c0-4.554 1.775-8.832 4.99-12.054l64.6-64.595a16.943 16.943 0 0 1 12.058-4.995 16.96 16.96 0 0 1 12.053 4.99 14.109 14.109 0 0 0 10.057 4.17c3.799 0 7.375-1.48 10.056-4.165a14.113 14.113 0 0 0 4.174-10.066c0-3.799-1.485-7.375-4.169-10.06A45.417 45.417 0 0 0 127.891 65l31.553-31.553c3.211-3.212 7.49-4.98 12.053-4.98 4.558 0 8.837 1.769 12.053 4.98a16.908 16.908 0 0 1 4.99 12.048c0 4.553-1.77 8.832-4.99 12.053l-64.6 64.605c-3.212 3.212-7.49 4.976-12.049 4.976-4.558 0-8.836-1.77-12.053-4.981a14.147 14.147 0 0 0-10.06-4.169c-3.8 0-7.376 1.485-10.062 4.169a14.126 14.126 0 0 0-4.17 10.061 14.124 14.124 0 0 0 4.171 10.056zm122.237-71.307l-64.6 64.605c-7.016 7.016-16.242 10.53-25.463 10.53-9.22 0-18.447-3.51-25.467-10.535a4.738 4.738 0 0 1 0-6.707 4.74 4.74 0 0 1 6.707 0c10.346 10.351 27.175 10.346 37.516.005l64.6-64.605c5.014-5.009 7.77-11.673 7.77-18.76 0-7.087-2.756-13.746-7.77-18.76-10.355-10.35-27.175-10.34-37.52 0l-32.464 32.463a4.738 4.738 0 0 1-6.707 0 4.74 4.74 0 0 1 0-6.707l32.464-32.463c14.035-14.04 36.889-14.04 50.934 0 6.806 6.802 10.554 15.847 10.549 25.467.001 9.625-3.747 18.666-10.549 25.467z"/></symbol></svg>